<?xml version="1.0" encoding="utf-8"?>
<!-- Generator: Adobe Illustrator 21.0.1, SVG Export Plug-In . SVG Version: 6.00 Build 0)  -->
<svg version="1.1" id="Layer_1" xmlns="http://www.w3.org/2000/svg" xmlns:xlink="http://www.w3.org/1999/xlink" x="0px" y="0px"
	 viewBox="0 0 1000 1000" style="enable-background:new 0 0 1000 1000;" xml:space="preserve">
<style type="text/css">
	.st0{fill:#ED212D;}
</style>
<g>
	<path class="st0" d="M761.5,332.1c-33.8,0-61.3,27.5-61.3,61.3s27.5,61.3,61.3,61.3c33.8,0,61.3-27.5,61.3-61.3
		S795.3,332.1,761.5,332.1z M761.5,430.8c-20.6,0-37.4-16.8-37.4-37.4c0-20.6,16.8-37.4,37.4-37.4s37.4,16.8,37.4,37.4
		C799,414,782.2,430.8,761.5,430.8z"/>
	<circle class="st0" cx="761.5" cy="393.4" r="16.5"/>
	<path class="st0" d="M175,728.5c-33.8,0-61.3,27.5-61.3,61.3c0,33.8,27.5,61.3,61.3,61.3s61.3-27.5,61.3-61.3
		C236.3,756,208.8,728.5,175,728.5z M175,827.3c-20.6,0-37.4-16.8-37.4-37.4s16.8-37.4,37.4-37.4s37.4,16.8,37.4,37.4
		S195.7,827.3,175,827.3z"/>
	<circle class="st0" cx="175" cy="789.8" r="16.5"/>
	<path class="st0" d="M345,94.4c-33.8,0-61.3,27.5-61.3,61.3s27.5,61.3,61.3,61.3s61.3-27.5,61.3-61.3S378.8,94.4,345,94.4z
		 M345,193.2c-20.6,0-37.4-16.8-37.4-37.4s16.8-37.4,37.4-37.4c20.6,0,37.4,16.8,37.4,37.4S365.7,193.2,345,193.2z"/>
	<circle class="st0" cx="345" cy="155.7" r="16.5"/>
	<path class="st0" d="M616.4,720.2H492.8c-6.6,0-11.9,5.3-11.9,11.9c0,6.6,5.3,11.9,11.9,11.9h123.7c6.6,0,11.9-5.3,11.9-11.9
		C628.3,725.5,623,720.2,616.4,720.2z"/>
	<path class="st0" d="M616.4,779.4H492.8c-6.6,0-11.9,5.3-11.9,11.9s5.3,11.9,11.9,11.9h123.7c6.6,0,11.9-5.3,11.9-11.9
		S623,779.4,616.4,779.4z"/>
	<path class="st0" d="M616.4,838.7H492.8c-6.6,0-11.9,5.3-11.9,11.9c0,6.6,5.3,11.9,11.9,11.9h123.7c6.6,0,11.9-5.3,11.9-11.9
		C628.3,844,623,838.7,616.4,838.7z"/>
	<path class="st0" d="M957,295.1H852.5v-77.6c0-3.2-1.3-6.2-3.5-8.4L678.3,38.5c-2.2-2.2-5.3-3.5-8.4-3.5H240.3
		c-6.6,0-11.9,5.3-11.9,11.9v562.5H41.9c-6.6,0-11.9,5.3-11.9,11.9v337c0,6.6,5.3,11.9,11.9,11.9h667.2c6.6,0,11.9-5.3,11.9-11.9
		V878h119.4c6.6,0,11.9-5.3,11.9-11.9V491.6H957c17.7,0,32-14.4,32-32V327.2C989,309.5,974.6,295.1,957,295.1z M681.8,75.7
		l129.9,129.9H681.8V75.7z M697.2,946.4H53.9V633.3h643.3V946.4z M828.6,854.2H721.1V621.4c0-6.6-5.3-11.9-11.9-11.9H252.2V58.8
		h405.6v158.8c0,6.6,5.3,11.9,11.9,11.9h158.8v65.6H695.7c-17.7,0-32,14.4-32,32v132.4c0,17.7,14.4,32,32,32h132.9L828.6,854.2
		L828.6,854.2z M965.1,459.6c0,4.5-3.6,8.1-8.1,8.1H695.7c-4.5,0-8.1-3.6-8.1-8.1V327.2c0-4.5,3.6-8.1,8.1-8.1H957
		c4.5,0,8.1,3.6,8.1,8.1V459.6z"/>
	<path class="st0" d="M925.5,360.8h-77.3c-6.6,0-11.9,5.3-11.9,11.9c0,6.6,5.3,11.9,11.9,11.9h77.3c6.6,0,11.9-5.3,11.9-11.9
		C937.5,366.2,932.1,360.8,925.5,360.8z"/>
	<path class="st0" d="M925.5,402h-77.3c-6.6,0-11.9,5.3-11.9,11.9c0,6.6,5.3,11.9,11.9,11.9h77.3c6.6,0,11.9-5.3,11.9-11.9
		C937.5,407.4,932.1,402,925.5,402z"/>
	<path class="st0" d="M149.6,588.6c1.5,5.1,6.1,8.7,11.5,8.7c5.3,0,10-3.6,11.5-8.7l21.7-77c0.3-1.1,0.4-2.1,0.4-3.2v-405
		c0-6.6-5.3-11.9-11.9-11.9h-43.4c-6.6,0-11.9,5.3-11.9,11.9v405c0,1.1,0.1,2.2,0.4,3.2L149.6,588.6z M155.1,520.3H167l-5.9,21.1
		L155.1,520.3z M170.8,115.3v381.1h-19.5V115.3H170.8z"/>
	<path class="st0" d="M41.9,597.3h43.4c6.6,0,11.9-5.3,11.9-11.9v-405c0-1.1-0.1-2.2-0.4-3.2l-21.7-77c-1.5-5.1-6.1-8.7-11.5-8.7
		s-10,3.6-11.5,8.7l-21.7,77c-0.3,1.1-0.4,2.1-0.4,3.2v405C30,591.9,35.3,597.3,41.9,597.3z M53.9,573.4V192.3h19.5v381.1
		L53.9,573.4L53.9,573.4z M69.6,168.4H57.7l5.9-21.1L69.6,168.4z"/>
</g>
</svg>
