<?xml version="1.0" encoding="utf-8"?>
<!-- Generator: Adobe Illustrator 21.0.1, SVG Export Plug-In . SVG Version: 6.00 Build 0)  -->
<svg version="1.1" id="Layer_1" xmlns="http://www.w3.org/2000/svg" xmlns:xlink="http://www.w3.org/1999/xlink" x="0px" y="0px"
	 viewBox="0 0 1000 1000" style="enable-background:new 0 0 1000 1000;" xml:space="preserve">
<style type="text/css">
	.st0{fill:#ED212D;}
</style>
<g>
	<g id="Layer_1_31_">
		<g>
			<path class="st0" d="M492.6,165.5c-162.2,0-294.2,127.7-294.2,284.5c0,101.8,41.3,162.3,71.7,207c18.7,27.5,29.3,43.8,29.3,60.2
				c0,36.9,19.8,71.7,54.9,97.8c0.9,21.9,4.1,75.3,4.1,75.3c0,0,0,0,0,0.1c0.6,15.2,8.6,46.3,60.8,63.6c6.2,9.1,14.2,17.1,24,23.6
				c6.1,4.1,13.4,6.4,20.8,6.4h57c7.4,0,14.6-2.2,20.8-6.4c9.8-6.6,17.9-14.6,24-23.6c52.7-17.6,60.4-49,60.9-63.7
				c0,0,3.2-53.3,4.1-75.2c35.2-26.1,55-60.9,55-97.8c0-16.4,10.6-32.8,29.5-60.5c30.2-44.2,71.6-104.9,71.6-206.8
				C786.8,293.1,654.8,165.5,492.6,165.5z M653.6,615.1c-21.7,31.9-42.2,61.9-42.2,102.1c0,17.7-16,31.9-27.9,40.1H401.7
				c-11.9-8.2-27.9-22.4-27.9-40.1c0-40.2-20.5-70.3-42.5-102.5c-27.4-40.2-58.6-85.9-58.6-164.7c0-115.8,98.6-210.1,219.8-210.1
				c121.2,0,219.8,94.2,219.8,210.1C712.4,529,681.3,574.5,653.6,615.1z"/>
			<path class="st0" d="M492.6,109.7c10.3,0,18.6-8.3,18.6-18.6V35.3c0-10.3-8.3-18.6-18.6-18.6S474,25,474,35.3v55.8
				C474,101.4,482.3,109.7,492.6,109.7z"/>
			<path class="st0" d="M294.9,149c3.5,6,9.7,9.3,16.1,9.3c3.1,0,6.4-0.8,9.3-2.5c8.9-5.1,12-16.5,6.8-25.4l-27.9-48.3
				c-5.1-8.9-16.5-12-25.4-6.8c-8.9,5.1-11.9,16.5-6.8,25.4L294.9,149z"/>
			<path class="st0" d="M187.5,256.5l-48.3-27.9c-8.9-5.1-20.3-2.1-25.4,6.8c-5.1,8.9-2.1,20.3,6.8,25.4l48.3,27.9
				c2.9,1.7,6.1,2.5,9.3,2.5c6.4,0,12.7-3.3,16.1-9.3C199.4,273,196.4,261.6,187.5,256.5z"/>
			<path class="st0" d="M148.1,454.1c0-10.3-8.3-18.6-18.6-18.6H73.7c-10.3,0-18.6,8.3-18.6,18.6c0,10.3,8.3,18.6,18.6,18.6h55.8
				C139.8,472.7,148.1,464.4,148.1,454.1z"/>
			<path class="st0" d="M168.9,619.5l-48.3,27.9c-8.9,5.1-12,16.5-6.8,25.4c3.4,6,9.7,9.3,16.1,9.3c3.1,0,6.4-0.8,9.3-2.5l48.3-27.9
				c8.9-5.1,12-16.5,6.8-25.4C189.2,617.4,177.8,614.4,168.9,619.5z"/>
			<path class="st0" d="M864.6,647.4l-48.3-27.9c-8.9-5.1-20.3-2.1-25.4,6.8s-2.1,20.3,6.8,25.4l48.3,27.9c3,1.7,6.1,2.5,9.3,2.5
				c6.4,0,12.7-3.3,16.1-9.3C876.5,664,873.5,652.5,864.6,647.4z"/>
			<path class="st0" d="M911.4,435.5l-55.8,0l0,0c-10.3,0-18.6,8.3-18.6,18.6c0,10.3,8.3,18.6,18.6,18.6l55.8,0l0,0
				c10.2,0,18.6-8.3,18.6-18.6C930,443.9,921.7,435.5,911.4,435.5z"/>
			<path class="st0" d="M807,291.2c3.2,0,6.4-0.8,9.3-2.5l48.3-27.9c8.9-5.1,12-16.5,6.8-25.4c-5.1-8.9-16.5-12-25.4-6.8l-48.3,27.9
				c-8.9,5.1-12,16.5-6.8,25.4C794.3,287.9,800.6,291.2,807,291.2z"/>
			<path class="st0" d="M664.8,155.8c2.9,1.7,6.1,2.5,9.3,2.5c6.4,0,12.7-3.3,16.1-9.3l27.9-48.3c5.1-8.9,2.1-20.3-6.8-25.4
				c-8.9-5.2-20.3-2.1-25.4,6.8L658,130.4C652.9,139.3,655.9,150.7,664.8,155.8z"/>
			<path class="st0" d="M467.6,566.5c2.2,16.5,10.2,21,24.9,21c14.7,0,22.7-4.5,25-21l17.6-132.7c1.1-9.1,2.2-18.1,2.2-26.6v-65.8
				c0-28.9-16.4-43.7-44.8-43.7c-28.4,0-44.8,14.7-44.8,43.7v65.8c0,8.5,1.1,17.6,2.3,26.6L467.6,566.5z"/>
			<path class="st0" d="M492.6,624.3c-25.5,0-46.5,21-46.5,46.5s21,46.5,46.5,46.5c25.5,0,46.5-21,46.5-46.5
				C539.1,645.3,518.1,624.3,492.6,624.3z"/>
		</g>
	</g>
</g>
</svg>
